#N canvas 609 292 450 300 12;
#X obj 78 5 inlet;
#X obj 78 51 list split 1, f 43;
#X obj 142 182 list append;
#X obj 72 227 outlet;
#X obj 73 118 sel -1;
#X obj 46 149 bng 15 250 50 0 empty empty empty 17 7 0 10 -262144 -1
-1;
#X obj 73 175 list;
#X obj 79 27 t a a;
#X obj 154 228 outlet;
#X obj 75 88 text search \$1 0;
#X obj 142 153 text get \$1 1 1;
#X connect 0 0 7 0;
#X connect 1 0 9 0;
#X connect 1 1 2 1;
#X connect 2 0 3 0;
#X connect 4 0 5 0;
#X connect 4 0 6 0;
#X connect 4 1 10 0;
#X connect 6 0 8 0;
#X connect 7 0 1 0;
#X connect 7 1 6 1;
#X connect 9 0 4 0;
#X connect 10 0 2 0;
