#N canvas 930 218 450 300 12;
#X obj 36 110 netreceive -u -b;
#X msg 45 77 listen 0 \, listen 54321;
#X obj 52 40 loadbang;
#X obj 38 213 print ouc;
#X obj 84 166 oscparse;
#X connect 0 0 4 0;
#X connect 1 0 0 0;
#X connect 2 0 1 0;
#X connect 4 0 3 0;
