#N canvas 312 312 580 433 12;
#X obj 228 85 ggee/shell;
#X msg 228 56 killall joystick;
#X obj 39 134 route Button;
#X obj 39 165 route 0 1 2 3 4 5 6 7 8 9;
#X obj 39 197 tgl 15 0 empty empty empty 17 7 0 10 -262144 -1 -1 1
1;
#X obj 56 197 tgl 15 0 empty empty empty 17 7 0 10 -262144 -1 -1 0
1;
#X obj 73 197 tgl 15 0 empty empty empty 17 7 0 10 -262144 -1 -1 0
1;
#X obj 90 197 tgl 15 0 empty empty empty 17 7 0 10 -262144 -1 -1 0
1;
#X obj 107 197 tgl 15 0 empty empty empty 17 7 0 10 -262144 -1 -1 0
1;
#X obj 125 197 tgl 15 0 empty empty empty 17 7 0 10 -262144 -1 -1 0
1;
#X obj 142 197 tgl 15 0 empty empty empty 17 7 0 10 -262144 -1 -1 0
1;
#X obj 159 197 tgl 15 0 empty empty empty 17 7 0 10 -262144 -1 -1 0
1;
#X obj 176 197 tgl 15 0 empty empty empty 17 7 0 10 -262144 -1 -1 0
1;
#X obj 193 197 tgl 15 0 empty empty empty 17 7 0 10 -262144 -1 -1 0
1;
#X obj 244 176 tgl 15 0 empty empty empty 17 7 0 10 -262144 -1 -1 0
1;
#X obj 277 176 tgl 15 0 empty empty empty 17 7 0 10 -262144 -1 -1 0
1;
#X obj 244 201 tgl 15 0 empty empty empty 17 7 0 10 -262144 -1 -1 0
1;
#X obj 261 201 tgl 15 0 empty empty empty 17 7 0 10 -262144 -1 -1 1
1;
#X obj 278 201 tgl 15 0 empty empty empty 17 7 0 10 -262144 -1 -1 0
1;
#X obj 244 227 tgl 15 0 empty empty empty 17 7 0 10 -262144 -1 -1 0
1;
#X obj 278 227 tgl 15 0 empty empty empty 17 7 0 10 -262144 -1 -1 0
1;
#X obj 243 249 tgl 15 0 empty empty empty 17 7 0 10 -262144 -1 -1 0
1;
#X obj 260 249 tgl 15 0 empty empty empty 17 7 0 10 -262144 -1 -1 0
1;
#X obj 277 249 tgl 15 0 empty empty empty 17 7 0 10 -262144 -1 -1 0
1;
#X obj 302 155 route 8 9;
#X obj 301 182 route 6 0 7;
#X obj 303 205 route 2 3;
#X obj 301 228 route 4 1 5;
#X text 22 9 DDR parser;
#X text 191 8 require ggee/shell;
#N canvas 481 153 450 300 stdjoy 0;
#X obj 18 207 ggee/shell;
#X obj 39 95 pdcontrol;
#X msg 39 72 dir 0;
#X obj 19 123 makefilename %s/stdjoy/joystick;
#X obj 83 236 print shellout;
#X msg 19 173 /home/pi/src/ethddr/stdjoy/joystick;
#X msg 19 147 set \$1 \, bang;
#X obj 19 271 outlet;
#X obj 20 16 inlet;
#X connect 0 0 7 0;
#X connect 0 1 4 0;
#X connect 1 0 3 0;
#X connect 2 0 1 0;
#X connect 3 0 6 0;
#X connect 5 0 0 0;
#X connect 6 0 5 0;
#X connect 8 0 2 0;
#X restore 39 78 pd stdjoy;
#X obj 39 48 loadbang;
#X obj 21 51 bng 15 250 50 0 empty empty empty 17 7 0 10 -262144 -1
-1;
#X obj 343 117 text define mapping_\$0;
#X obj 58 358 noteout;
#X connect 1 0 0 0;
#X connect 2 0 3 0;
#X connect 2 0 24 0;
#X connect 3 0 4 0;
#X connect 3 1 5 0;
#X connect 3 2 6 0;
#X connect 3 3 7 0;
#X connect 3 4 8 0;
#X connect 3 5 9 0;
#X connect 3 6 10 0;
#X connect 3 7 11 0;
#X connect 3 8 12 0;
#X connect 3 9 13 0;
#X connect 24 0 14 0;
#X connect 24 1 15 0;
#X connect 24 2 25 0;
#X connect 25 0 16 0;
#X connect 25 1 17 0;
#X connect 25 2 18 0;
#X connect 25 3 26 0;
#X connect 26 0 19 0;
#X connect 26 1 20 0;
#X connect 26 2 27 0;
#X connect 27 0 21 0;
#X connect 27 1 22 0;
#X connect 27 2 23 0;
#X connect 30 0 2 0;
#X connect 31 0 30 0;
#X connect 32 0 30 0;
