#N canvas 833 31 580 433 12;
#X obj 228 85 ggee/shell;
#X msg 228 56 killall joystick;
#X obj 38 107 route Button;
#X obj 36 304 route 0 1 2 3 4 5 6 7 8 9;
#X obj 36 336 tgl 15 0 empty empty empty 17 7 0 10 -262144 -1 -1 0
1;
#X obj 53 336 tgl 15 0 empty empty empty 17 7 0 10 -262144 -1 -1 0
1;
#X obj 70 336 tgl 15 0 empty empty empty 17 7 0 10 -262144 -1 -1 0
1;
#X obj 87 336 tgl 15 0 empty empty empty 17 7 0 10 -262144 -1 -1 0
1;
#X obj 104 336 tgl 15 0 empty empty empty 17 7 0 10 -262144 -1 -1 0
1;
#X obj 122 336 tgl 15 0 empty empty empty 17 7 0 10 -262144 -1 -1 0
1;
#X obj 139 336 tgl 15 0 empty empty empty 17 7 0 10 -262144 -1 -1 0
1;
#X obj 156 336 tgl 15 0 empty empty empty 17 7 0 10 -262144 -1 -1 0
1;
#X obj 173 336 tgl 15 0 empty empty empty 17 7 0 10 -262144 -1 -1 0
1;
#X obj 190 336 tgl 15 0 empty empty empty 17 7 0 10 -262144 -1 -1 0
1;
#X obj 241 315 tgl 15 0 empty empty empty 17 7 0 10 -262144 -1 -1 0
1;
#X obj 274 315 tgl 15 0 empty empty empty 17 7 0 10 -262144 -1 -1 0
1;
#X obj 241 340 tgl 15 0 empty empty empty 17 7 0 10 -262144 -1 -1 0
1;
#X obj 258 340 tgl 15 0 empty empty empty 17 7 0 10 -262144 -1 -1 0
1;
#X obj 275 340 tgl 15 0 empty empty empty 17 7 0 10 -262144 -1 -1 0
1;
#X obj 241 366 tgl 15 0 empty empty empty 17 7 0 10 -262144 -1 -1 0
1;
#X obj 275 366 tgl 15 0 empty empty empty 17 7 0 10 -262144 -1 -1 0
1;
#X obj 240 388 tgl 15 0 empty empty empty 17 7 0 10 -262144 -1 -1 0
1;
#X obj 257 388 tgl 15 0 empty empty empty 17 7 0 10 -262144 -1 -1 0
1;
#X obj 274 388 tgl 15 0 empty empty empty 17 7 0 10 -262144 -1 -1 0
1;
#X obj 299 294 route 8 9;
#X obj 298 321 route 6 0 7;
#X obj 300 344 route 2 3;
#X obj 298 367 route 4 1 5;
#X text 22 9 DDR parser;
#X text 191 8 require ggee/shell;
#N canvas 481 153 450 300 stdjoy 0;
#X obj 18 207 ggee/shell;
#X obj 39 95 pdcontrol;
#X msg 39 72 dir 0;
#X obj 19 123 makefilename %s/stdjoy/joystick;
#X obj 83 236 print shellout;
#X msg 19 173 /Users/gllm/src/ethddr/stdjoy/joystick;
#X msg 19 147 set \$1 \, bang;
#X obj 19 271 outlet;
#X obj 20 16 inlet;
#X connect 0 0 7 0;
#X connect 0 1 4 0;
#X connect 1 0 3 0;
#X connect 2 0 1 0;
#X connect 3 0 6 0;
#X connect 5 0 0 0;
#X connect 6 0 5 0;
#X connect 8 0 2 0;
#X restore 39 78 pd stdjoy;
#X obj 39 48 loadbang;
#X obj 21 51 bng 15 250 50 0 empty empty empty 17 7 0 10 -262144 -1
-1;
#N canvas 52 424 831 330 filtrage 0;
#X obj 122 39 inlet;
#X obj 76 99 print;
#X obj 122 66 list trim;
#X text 29 558 cote droit;
#X text 574 26 up down left right;
#X text 23 271 jump -> up;
#X text 9 319 milieu -> down;
#X text 25 512 cote gauche;
#X obj 123 101 route centre gauche droite;
#X msg 123 146 1 \$1;
#X msg 182 146 2 \$1;
#X msg 244 149 3 \$1;
#X text 17 235 dispatch data;
#N canvas 138 41 360 282 interface_tests 0;
#X obj 13 132 outlet;
#X msg 227 19 droite 1;
#X msg 227 41 droite 0;
#X msg 11 19 gauche 1;
#X msg 12 39 gauche 0;
#X msg 120 38 centre 0;
#X msg 120 17 centre 1;
#X obj 12 101 t a;
#X obj 121 101 t a;
#X obj 228 100 t a;
#X connect 1 0 9 0;
#X connect 2 0 9 0;
#X connect 3 0 7 0;
#X connect 4 0 7 0;
#X connect 5 0 8 0;
#X connect 6 0 8 0;
#X connect 7 0 0 0;
#X connect 8 0 0 0;
#X connect 9 0 0 0;
#X restore 204 67 pd interface_tests;
#X obj 470 114 array define -yrange 0 4 accum_\$0 4;
#X obj 124 225 expr 0 \; if ($f2==1 \, accum_\$0[$f1]=accum_\$0[$f1]+1
\, accum_\$0[$f1]= accum_\$0[$f1]-1), f 85;
#X obj 124 272 expr 0 \; if(sum("accum_\$0") == 0 \, state_\$0[0]=1
\, state_\$0[0]=0), f 83;
#X obj 125 504 expr 0 \; if(accum_\$0[2]!=0 && accum_\$0[2]>accum_\$0[3]
\, state_\$0[2]=1 \, state_\$0[2]=0) \;, f 83;
#X obj 125 547 expr 0 \; if(accum_\$0[3]!=0 && accum_\$0[3]>accum_\$0[2]
\, state_\$0[3]=1 \, state_\$0[3]=0) \;, f 83;
#X obj 120 663 array min state_\$0;
#X obj 121 693 sel -1;
#X obj 177 694 print need_calib;
#X obj 125 603 t b;
#X obj 121 718 t b b;
#X obj 119 777 array max state_\$0;
#X obj 160 745 t b;
#X obj 119 808 sel 1;
#X obj 119 839 i;
#X text 8 692 recalibrer si -1;
#X text 10 783 sortir si =1;
#X obj 119 873 outlet;
#X text -39 436 milieu 0 si direction;
#X obj 125 428 expr 0 \; if(accum_\$0[1]!=0 && accum_\$0[1]> accum_\$0[2]+accum_\$0[3]
\, state_\$0[1]=0 \, state_\$0[1]) \;, f 100;
#X obj 469 146 array define -yrange 0 1 state_\$0 4;
#X obj 124 314 expr 0 \; if( accum_\$0[2]==accum_\$0[3] && sum("accum_\$0")!=0
\, state_\$0[1]=1 \, state_\$0[1]=0) \;, f 100;
#X connect 0 0 2 0;
#X connect 2 0 1 0;
#X connect 2 0 8 0;
#X connect 8 0 9 0;
#X connect 8 1 10 0;
#X connect 8 2 11 0;
#X connect 9 0 15 0;
#X connect 10 0 15 0;
#X connect 11 0 15 0;
#X connect 13 0 8 0;
#X connect 15 0 16 0;
#X connect 16 0 34 0;
#X connect 17 0 18 0;
#X connect 18 0 22 0;
#X connect 19 0 20 0;
#X connect 20 0 23 0;
#X connect 20 1 25 0;
#X connect 22 0 19 0;
#X connect 23 0 21 0;
#X connect 23 1 25 0;
#X connect 24 0 26 0;
#X connect 24 1 27 1;
#X connect 25 0 24 0;
#X connect 26 0 27 0;
#X connect 27 0 30 0;
#X connect 32 0 17 0;
#X connect 34 0 32 0;
#X restore 59 160 pd filtrage;
#N canvas 0 23 450 300 remap 0;
#X obj 63 50 inlet;
#X obj 64 97 sel 0 1 2 3;
#X msg 56 156 up;
#X msg 95 184 down;
#X msg 114 157 left;
#X msg 137 134 right;
#X connect 0 0 1 0;
#X restore 223 444 pd remap;
#X obj 38 269 t a a;
#X obj 199 131 text define -k mapping_\$0;
#A set 0 centre \; 1 centre \; 2 gauche \; 3 droite \; 4 gauche \;
5 droite \; 6 gauche \; 7 droite \; 8 gauche \; 9 droite \;;
#X obj 197 183 text define -k outputs_\$0;
#A set 0 up \; 1 down \; 2 left \; 3 right \;;
#N canvas 819 483 450 300 map_1 0;
#X obj 181 33 inlet;
#X obj 41 94 text search mapping_\$0 0;
#X obj 41 128 text get mapping_\$0 1 1;
#X obj 182 63 list split 1;
#X obj 148 164 list append;
#X obj 149 199 outlet;
#X connect 0 0 3 0;
#X connect 1 0 2 0;
#X connect 2 0 4 0;
#X connect 3 0 1 0;
#X connect 3 1 4 1;
#X connect 4 0 5 0;
#X restore 59 134 pd map_1;
#N canvas 819 483 450 300 map_2 0;
#X obj 181 33 inlet;
#X obj 182 63 list split 1;
#X obj 148 164 list append;
#X obj 149 199 outlet;
#X obj 41 94 text search outputs_\$0 0;
#X obj 41 128 text get outputs_\$0 1 1;
#X connect 0 0 1 0;
#X connect 1 0 4 0;
#X connect 1 1 2 1;
#X connect 2 0 3 0;
#X connect 4 0 5 0;
#X connect 5 0 2 0;
#X restore 60 185 pd map_2;
#X symbolatom 78 208 10 0 0 0 - - -;
#X obj 60 210 bng 15 250 50 0 empty empty empty 17 7 0 10 -262144 -1
-1;
#X connect 1 0 0 0;
#X connect 2 0 38 0;
#X connect 2 0 35 0;
#X connect 3 0 4 0;
#X connect 3 1 5 0;
#X connect 3 2 6 0;
#X connect 3 3 7 0;
#X connect 3 4 8 0;
#X connect 3 5 9 0;
#X connect 3 6 10 0;
#X connect 3 7 11 0;
#X connect 3 8 12 0;
#X connect 3 9 13 0;
#X connect 24 0 14 0;
#X connect 24 1 15 0;
#X connect 24 2 25 0;
#X connect 25 0 16 0;
#X connect 25 1 17 0;
#X connect 25 2 18 0;
#X connect 25 3 26 0;
#X connect 26 0 19 0;
#X connect 26 1 20 0;
#X connect 26 2 27 0;
#X connect 27 0 21 0;
#X connect 27 1 22 0;
#X connect 27 2 23 0;
#X connect 30 0 2 0;
#X connect 31 0 30 0;
#X connect 32 0 30 0;
#X connect 33 0 39 0;
#X connect 35 0 3 0;
#X connect 35 1 24 0;
#X connect 38 0 33 0;
#X connect 39 0 40 0;
#X connect 39 0 41 0;
