#N canvas 1039 240 578 481 12;
#X text 199 29 DDR parser;
#X obj 294 88 text define -k mapping_\$0;
#A set 0 centre \; 1 centre \; 2 gauche \; 3 droite \; 4 gauche \;
5 droite \; 6 gauche \; 7 droite \;;
#X obj 293 182 text define -k outputs_\$0;
#A set 0 up \; 1 down \; 2 left \; 3 right \; 8 space \; 9 enter \;
;
#X symbolatom 146 253 10 0 0 0 - - -;
#X obj 128 255 bng 15 250 50 0 empty empty empty 17 7 0 10 -262144
-1 -1;
#N canvas 409 204 808 611 send_osc 0;
#X obj 11 11 inlet;
#X obj 12 275 netsend -b -u;
#X obj 220 190 text get osc_out_\$0;
#X msg 220 161 0;
#X msg 220 214 disconnect \, connect \$1 \$2;
#X obj 223 57 text define osc_out_\$0;
#X obj 85 8 loadbang;
#X msg 223 12 read -c osc_out.txt;
#X msg 238 33 write -c osc_out.txt;
#X obj 12 145 oscformat;
#X obj 12 171 list prepend send;
#X obj 12 196 list trim;
#X obj 33 93 text get osc_out_\$0;
#X msg 33 67 1;
#X msg 33 118 set \$1;
#X obj 82 32 t b b b;
#X obj 66 10 bng 15 250 50 0 empty empty empty 17 7 0 10 -262144 -1
-1;
#X obj 38 322 netsend -b -u;
#X connect 0 0 9 0;
#X connect 2 0 4 0;
#X connect 3 0 2 0;
#X connect 4 0 1 0;
#X connect 6 0 15 0;
#X connect 7 0 5 0;
#X connect 8 0 5 0;
#X connect 9 0 10 0;
#X connect 10 0 11 0;
#X connect 11 0 1 0;
#X connect 12 0 14 0;
#X connect 13 0 12 0;
#X connect 14 0 9 0;
#X connect 15 0 13 0;
#X connect 15 1 3 0;
#X connect 15 2 7 0;
#X connect 16 0 15 0;
#X restore 117 277 pd send_osc;
#N canvas 706 180 1081 878 filtre_complexe 0;
#X obj 162 83 inlet;
#X obj 162 110 list trim;
#X text 68 491 cote droit;
#X text 64 445 cote gauche;
#X obj 163 145 route centre gauche droite;
#X msg 163 190 1 \$1;
#X msg 222 190 2 \$1;
#X msg 284 193 3 \$1;
#N canvas 138 41 360 282 interface_tests 0;
#X obj 13 132 outlet;
#X msg 227 19 droite 1;
#X msg 227 41 droite 0;
#X msg 11 19 gauche 1;
#X msg 12 39 gauche 0;
#X msg 120 38 centre 0;
#X msg 120 17 centre 1;
#X obj 12 101 t a;
#X obj 121 101 t a;
#X obj 228 100 t a;
#X connect 1 0 9 0;
#X connect 2 0 9 0;
#X connect 3 0 7 0;
#X connect 4 0 7 0;
#X connect 5 0 8 0;
#X connect 6 0 8 0;
#X connect 7 0 0 0;
#X connect 8 0 0 0;
#X connect 9 0 0 0;
#X restore 244 111 pd interface_tests;
#X obj 510 158 array define -yrange 0 4 accum_\$0 4;
#X obj 164 269 expr 0 \; if ($f2==1 \, accum_\$0[$f1]=accum_\$0[$f1]+1
\, accum_\$0[$f1]= accum_\$0[$f1]-1), f 100;
#X obj 164 316 expr 0 \; if(sum("accum_\$0") == 0 \, state_\$0[0]=1
\, state_\$0[0]=0), f 100;
#X obj 164 437 expr 0 \; if(accum_\$0[2]!=0 && accum_\$0[2]>accum_\$0[3]
\, state_\$0[2]=1 \, state_\$0[2]=0) \;, f 100;
#X obj 164 480 expr 0 \; if(accum_\$0[3]!=0 && accum_\$0[3]>accum_\$0[2]
\, state_\$0[3]=1 \, state_\$0[3]=0) \;, f 100;
#X obj 164 547 array min state_\$0;
#X obj 165 577 sel -1;
#X obj 164 520 t b;
#X obj 165 602 t b b;
#X obj 213 711 array max state_\$0;
#X obj 209 677 t b;
#X obj 213 742 sel 1;
#X obj 213 773 i;
#X text 44 578 recalibrer si -1;
#X text 53 679 sortir si =1;
#X obj 213 807 outlet;
#X obj 164 398 expr 0 \; if(accum_\$0[1]!=0 && accum_\$0[1]> accum_\$0[2]+accum_\$0[3]
\, state_\$0[1]=0 \, state_\$0[1]) \;, f 100;
#X obj 509 190 array define -yrange 0 1 state_\$0 4;
#X obj 164 358 expr 0 \; if( accum_\$0[2]==accum_\$0[3] && sum("accum_\$0")!=0
\, state_\$0[1]=1 \, state_\$0[1]=0) \;, f 100;
#X obj 377 147 inlet;
#X obj 362 195 outlet;
#X obj 165 632 print UNDERFLOW :: need_calib;
#X text 785 157 donnees entrantes;
#X text 783 191 donnees sortantes;
#X text 209 23 Sort des evements non redondant;
#X text -8 6 In gauche centre droite 0/1;
#X text -9 22 Out up down left right;
#X text 47 279 data -> accum;
#X text 45 322 cnd jump (up);
#X text 31 366 cnd milieu (down);
#X text 22 407 si direction;
#X msg 510 130 const 0;
#X obj 526 82 r reset_\$0;
#X text 209 7 Prend des mots et des etats en entree;
#X obj 48 635 send reset_\$0;
#X connect 0 0 1 0;
#X connect 1 0 4 0;
#X connect 4 0 5 0;
#X connect 4 1 6 0;
#X connect 4 2 7 0;
#X connect 4 3 29 0;
#X connect 5 0 10 0;
#X connect 6 0 10 0;
#X connect 7 0 10 0;
#X connect 8 0 4 0;
#X connect 10 0 11 0;
#X connect 11 0 27 0;
#X connect 12 0 13 0;
#X connect 13 0 16 0;
#X connect 14 0 15 0;
#X connect 15 0 17 0;
#X connect 15 1 19 0;
#X connect 16 0 14 0;
#X connect 17 0 30 0;
#X connect 17 0 43 0;
#X connect 17 1 19 0;
#X connect 18 0 20 0;
#X connect 18 1 21 1;
#X connect 19 0 18 0;
#X connect 20 0 21 0;
#X connect 21 0 24 0;
#X connect 25 0 12 0;
#X connect 27 0 25 0;
#X connect 28 0 29 0;
#X connect 40 0 9 0;
#X connect 41 0 40 0;
#X restore 95 152 pd filtre_complexe;
#N canvas 0 23 450 300 filtre_on 0;
#X obj 65 17 inlet;
#X obj 105 107 outlet;
#X obj 65 46 expr if($f2==1 \, $f1 \, -1);
#X obj 65 75 sel -1;
#X text 143 23 list de deux chiffres entre;
#X text 162 106 un chiffre sort quand on;
#X connect 0 0 2 0;
#X connect 2 0 3 0;
#X connect 3 1 1 0;
#X restore 239 127 pd filtre_on;
#N canvas 683 145 808 379 send_dmx 0;
#X obj 72 110 inlet;
#X obj 129 614 netsend -b -u;
#X msg 281 260 0;
#X msg 292 391 disconnect \, connect \$1 \$2;
#X obj 146 107 loadbang;
#X obj 92 512 oscformat;
#X obj 129 550 list prepend send;
#X obj 129 575 list trim;
#X msg 118 200 1;
#X obj 143 131 t b b b;
#X obj 127 109 bng 15 250 50 0 empty empty empty 17 7 0 10 -262144
-1 -1;
#X msg 284 111 read -c dmx_out.txt;
#X msg 299 132 write -c dmx_out.txt;
#X obj 284 156 text define dmx_out_\$0;
#X obj 281 288 text get dmx_out_\$0;
#X obj 118 226 text get dmx_out_\$0;
#X msg 92 46 up;
#X msg 129 47 down;
#X msg 175 46 left;
#X msg 212 46 right;
#X obj 93 -4 hradio 15 1 0 4 empty empty empty 0 -8 0 10 -262144 -1
-1 1;
#X obj 93 16 sel 0 1 2 3;
#X obj 40 96 t a;
#X obj 63 27 bng 15 250 50 0 empty empty empty 17 7 0 10 -262144 -1
-1;
#X msg 93 486 set \$1;
#X symbolatom 106 334 10 0 0 0 - - -;
#X msg 106 358 set \$1;
#X obj 53 388 makefilename;
#X obj 50 202 symbol;
#X obj 106 309 makefilename %s/%%s;
#X obj 47 436 t b a;
#X msg 45 481 1;
#X connect 0 0 28 0;
#X connect 2 0 14 0;
#X connect 3 0 1 0;
#X connect 4 0 9 0;
#X connect 5 0 6 0;
#X connect 6 0 7 0;
#X connect 7 0 1 0;
#X connect 8 0 15 0;
#X connect 9 0 8 0;
#X connect 9 1 2 0;
#X connect 9 2 11 0;
#X connect 10 0 9 0;
#X connect 11 0 13 0;
#X connect 12 0 13 0;
#X connect 14 0 3 0;
#X connect 15 0 29 0;
#X connect 16 0 22 0;
#X connect 17 0 22 0;
#X connect 18 0 22 0;
#X connect 19 0 22 0;
#X connect 20 0 21 0;
#X connect 20 0 23 0;
#X connect 21 0 16 0;
#X connect 21 1 17 0;
#X connect 21 2 18 0;
#X connect 21 3 19 0;
#X connect 22 0 28 0;
#X connect 24 0 5 0;
#X connect 25 0 26 0;
#X connect 26 0 27 0;
#X connect 27 0 30 0;
#X connect 28 0 27 0;
#X connect 29 0 25 0;
#X connect 30 0 31 0;
#X connect 30 1 24 0;
#X connect 31 0 5 0;
#X restore 108 300 pd send_dmx;
#N canvas 805 102 709 734 joyosc 0;
#X obj 119 291 bng 15 250 50 0 empty empty empty 0 20 0 10 -262144
-1 -1;
#X obj 164 293 bng 15 250 50 0 empty empty empty 0 20 0 10 -262144
-1 -1;
#X obj 210 309 bng 15 250 50 0 empty empty open 0 20 0 10 -262144 -1
-1;
#X obj 256 311 bng 15 250 50 0 empty empty close 0 20 0 10 -262144
-1 -1;
#X text 129 232 joyosc deamon events;
#X obj 25 199 route devices notifications;
#X obj 25 168 route joyosc;
#X obj 130 100 tgl 15 0 empty empty print_all_messages 17 7 0 10 -262144
-1 -1 0 1;
#N canvas -12 555 478 479 oscreceive 0;
#X obj 110 296 oscparse;
#X obj 110 325 list trim;
#X obj 130 398 spigot;
#X obj 110 450 outlet;
#X obj 163 364 inlet;
#X obj 130 424 print OSC;
#X msg 175 235 listen 8880;
#X msg 110 234 listen 0;
#X obj 110 208 sel 0;
#X obj 110 269 netreceive -u -b;
#X obj 110 179 inlet;
#X connect 0 0 1 0;
#X connect 1 0 2 0;
#X connect 1 0 3 0;
#X connect 2 0 5 0;
#X connect 4 0 2 1;
#X connect 6 0 9 0;
#X connect 7 0 9 0;
#X connect 8 0 7 0;
#X connect 8 1 6 0;
#X connect 9 0 0 0;
#X connect 10 0 8 0;
#X coords 0 479 1 478 140 40 0;
#X restore 25 129 pd oscreceive 8880;
#X obj 25 99 tgl 15 0 empty empty listen 17 7 0 10 -262144 -1 -1 1
1;
#X obj 231 345 unpack s f;
#X floatatom 316 375 0 0 0 0 id - -;
#X symbolatom 231 375 0 0 0 0 name - -;
#X obj 119 257 route ready shutdown open close;
#X obj 231 292 t a;
#X obj 24 33 loadbang;
#X msg 24 58 1;
#X obj 25 419 route gc0;
#X obj 25 444 route button;
#X obj 30 503 outlet;
#X connect 5 0 17 0;
#X connect 5 1 13 0;
#X connect 6 0 5 0;
#X connect 7 0 8 1;
#X connect 8 0 6 0;
#X connect 9 0 8 0;
#X connect 10 0 12 0;
#X connect 10 1 11 0;
#X connect 13 0 0 0;
#X connect 13 1 1 0;
#X connect 13 2 2 0;
#X connect 13 2 14 0;
#X connect 13 3 3 0;
#X connect 13 3 14 0;
#X connect 14 0 10 0;
#X connect 15 0 16 0;
#X connect 16 0 9 0;
#X connect 17 0 18 0;
#X connect 18 0 19 0;
#X restore 95 33 pd joyosc;
#X obj 272 56 text define -k ddr_joyosc_\$0;
#A set back 8 \; start 9 \; y 0 \; a 6 \; x 7 \; leftshoulder 4 \;
b 1 \; rightshoulder 5 \;;
#X obj 95 57 abs_lookup ddr_joyosc_\$0;
#X obj 95 97 abs_lookup mapping_\$0;
#X obj 95 184 abs_lookup outputs_\$0;
#N canvas 229 262 493 360 view 0;
#X obj 21 9 inlet;
#X obj 23 81 route 0 1 2 3 4 5 6 7 8 9;
#X obj 23 113 tgl 15 0 empty empty empty 17 7 0 10 -262144 -1 -1 0
1;
#X obj 40 113 tgl 15 0 empty empty empty 17 7 0 10 -262144 -1 -1 0
1;
#X obj 57 113 tgl 15 0 empty empty empty 17 7 0 10 -262144 -1 -1 0
1;
#X obj 74 113 tgl 15 0 empty empty empty 17 7 0 10 -262144 -1 -1 0
1;
#X obj 91 113 tgl 15 0 empty empty empty 17 7 0 10 -262144 -1 -1 0
1;
#X obj 109 113 tgl 15 0 empty empty empty 17 7 0 10 -262144 -1 -1 0
1;
#X obj 126 113 tgl 15 0 empty empty empty 17 7 0 10 -262144 -1 -1 0
1;
#X obj 143 113 tgl 15 0 empty empty empty 17 7 0 10 -262144 -1 -1 0
1;
#X obj 160 113 tgl 15 0 empty empty empty 17 7 0 10 -262144 -1 -1 0
1;
#X obj 177 113 tgl 15 0 empty empty empty 17 7 0 10 -262144 -1 -1 0
1;
#X obj 228 92 tgl 15 0 empty empty empty 17 7 0 10 -262144 -1 -1 0
1;
#X obj 261 92 tgl 15 0 empty empty empty 17 7 0 10 -262144 -1 -1 0
1;
#X obj 228 117 tgl 15 0 empty empty empty 17 7 0 10 -262144 -1 -1 0
1;
#X obj 245 117 tgl 15 0 empty empty empty 17 7 0 10 -262144 -1 -1 0
1;
#X obj 262 117 tgl 15 0 empty empty empty 17 7 0 10 -262144 -1 -1 0
1;
#X obj 228 143 tgl 15 0 empty empty empty 17 7 0 10 -262144 -1 -1 0
1;
#X obj 262 143 tgl 15 0 empty empty empty 17 7 0 10 -262144 -1 -1 0
1;
#X obj 227 165 tgl 15 0 empty empty empty 17 7 0 10 -262144 -1 -1 0
1;
#X obj 244 165 tgl 15 0 empty empty empty 17 7 0 10 -262144 -1 -1 0
1;
#X obj 261 165 tgl 15 0 empty empty empty 17 7 0 10 -262144 -1 -1 0
1;
#X obj 286 71 route 8 9;
#X obj 285 98 route 6 0 7;
#X obj 287 121 route 2 3;
#X obj 285 144 route 4 1 5;
#X obj 23 39 t a a;
#X connect 0 0 26 0;
#X connect 1 0 2 0;
#X connect 1 1 3 0;
#X connect 1 2 4 0;
#X connect 1 3 5 0;
#X connect 1 4 6 0;
#X connect 1 5 7 0;
#X connect 1 6 8 0;
#X connect 1 7 9 0;
#X connect 1 8 10 0;
#X connect 1 9 11 0;
#X connect 22 0 12 0;
#X connect 22 1 13 0;
#X connect 22 2 23 0;
#X connect 23 0 14 0;
#X connect 23 1 15 0;
#X connect 23 2 16 0;
#X connect 23 3 24 0;
#X connect 24 0 17 0;
#X connect 24 1 18 0;
#X connect 24 2 25 0;
#X connect 25 0 19 0;
#X connect 25 1 20 0;
#X connect 25 2 21 0;
#X connect 26 0 1 0;
#X connect 26 1 22 0;
#X restore 37 98 pd view;
#X obj 95 215 t a;
#X connect 6 0 13 0;
#X connect 6 1 13 0;
#X connect 7 0 6 1;
#X connect 9 0 11 0;
#X connect 11 0 12 0;
#X connect 11 0 14 0;
#X connect 12 0 6 0;
#X connect 12 1 7 0;
#X connect 13 0 15 0;
#X connect 15 0 3 0;
#X connect 15 0 4 0;
#X connect 15 0 5 0;
#X connect 15 0 8 0;
