#N canvas 82 100 580 519 12;
#X obj 263 63 ggee/shell;
#X msg 263 34 killall joystick;
#X obj 38 107 route Button;
#X obj 38 397 route 0 1 2 3 4 5 6 7 8 9;
#X obj 38 429 tgl 15 0 empty empty empty 17 7 0 10 -262144 -1 -1 0
1;
#X obj 55 429 tgl 15 0 empty empty empty 17 7 0 10 -262144 -1 -1 0
1;
#X obj 72 429 tgl 15 0 empty empty empty 17 7 0 10 -262144 -1 -1 0
1;
#X obj 89 429 tgl 15 0 empty empty empty 17 7 0 10 -262144 -1 -1 0
1;
#X obj 106 429 tgl 15 0 empty empty empty 17 7 0 10 -262144 -1 -1 0
1;
#X obj 124 429 tgl 15 0 empty empty empty 17 7 0 10 -262144 -1 -1 0
1;
#X obj 141 429 tgl 15 0 empty empty empty 17 7 0 10 -262144 -1 -1 1
1;
#X obj 158 429 tgl 15 0 empty empty empty 17 7 0 10 -262144 -1 -1 0
1;
#X obj 175 429 tgl 15 0 empty empty empty 17 7 0 10 -262144 -1 -1 0
1;
#X obj 192 429 tgl 15 0 empty empty empty 17 7 0 10 -262144 -1 -1 0
1;
#X obj 243 408 tgl 15 0 empty empty empty 17 7 0 10 -262144 -1 -1 0
1;
#X obj 276 408 tgl 15 0 empty empty empty 17 7 0 10 -262144 -1 -1 0
1;
#X obj 243 433 tgl 15 0 empty empty empty 17 7 0 10 -262144 -1 -1 1
1;
#X obj 260 433 tgl 15 0 empty empty empty 17 7 0 10 -262144 -1 -1 0
1;
#X obj 277 433 tgl 15 0 empty empty empty 17 7 0 10 -262144 -1 -1 0
1;
#X obj 243 459 tgl 15 0 empty empty empty 17 7 0 10 -262144 -1 -1 0
1;
#X obj 277 459 tgl 15 0 empty empty empty 17 7 0 10 -262144 -1 -1 0
1;
#X obj 242 481 tgl 15 0 empty empty empty 17 7 0 10 -262144 -1 -1 0
1;
#X obj 259 481 tgl 15 0 empty empty empty 17 7 0 10 -262144 -1 -1 0
1;
#X obj 276 481 tgl 15 0 empty empty empty 17 7 0 10 -262144 -1 -1 0
1;
#X obj 301 387 route 8 9;
#X obj 300 414 route 6 0 7;
#X obj 302 437 route 2 3;
#X obj 300 460 route 4 1 5;
#X text 461 -44 DDR parser;
#X text 191 7 require ggee/shell;
#N canvas 481 153 450 300 stdjoy 0;
#X obj 18 207 ggee/shell;
#X obj 39 95 pdcontrol;
#X msg 39 72 dir 0;
#X obj 19 123 makefilename %s/stdjoy/joystick;
#X obj 83 236 print shellout;
#X msg 19 173 /home/pi/src/ethddr/stdjoy/joystick;
#X msg 19 147 set \$1 \, bang;
#X obj 19 271 outlet;
#X obj 20 16 inlet;
#X connect 0 0 7 0;
#X connect 0 1 4 0;
#X connect 1 0 3 0;
#X connect 2 0 1 0;
#X connect 3 0 6 0;
#X connect 5 0 0 0;
#X connect 6 0 5 0;
#X connect 8 0 2 0;
#X restore 39 78 pd stdjoy;
#X obj 39 48 loadbang;
#X obj 21 51 bng 15 250 50 0 empty empty empty 17 7 0 10 -262144 -1
-1;
#X obj 38 355 t a a;
#X obj 235 128 text define -k mapping_\$0;
#A set 0 centre \; 1 centre \; 2 gauche \; 3 droite \; 4 gauche \;
5 droite \; 6 gauche \; 7 droite \;;
#X obj 256 198 text define -k outputs_\$0;
#A set 0 up \; 1 down \; 2 left \; 3 right \; 8 space \; 9 enter \;
;
#X symbolatom 216 282 10 0 0 0 - - -;
#X obj 198 284 bng 15 250 50 0 empty empty empty 17 7 0 10 -262144
-1 -1;
#N canvas 409 204 808 611 send_osc 0;
#X obj 11 11 inlet;
#X obj 12 275 netsend -b -u;
#X obj 220 190 text get osc_out_\$0;
#X msg 220 161 0;
#X msg 220 214 disconnect \, connect \$1 \$2;
#X obj 223 57 text define osc_out_\$0;
#X obj 85 8 loadbang;
#X msg 223 12 read -c osc_out.txt;
#X msg 238 33 write -c osc_out.txt;
#X obj 12 145 oscformat;
#X obj 12 171 list prepend send;
#X obj 12 196 list trim;
#X obj 33 93 text get osc_out_\$0;
#X msg 33 67 1;
#X msg 33 118 set \$1;
#X obj 82 32 t b b b;
#X obj 66 10 bng 15 250 50 0 empty empty empty 17 7 0 10 -262144 -1
-1;
#X obj 38 322 netsend -b -u;
#X connect 0 0 9 0;
#X connect 2 0 4 0;
#X connect 3 0 2 0;
#X connect 4 0 1 0;
#X connect 6 0 15 0;
#X connect 7 0 5 0;
#X connect 8 0 5 0;
#X connect 9 0 10 0;
#X connect 10 0 11 0;
#X connect 11 0 1 0;
#X connect 12 0 14 0;
#X connect 13 0 12 0;
#X connect 14 0 9 0;
#X connect 15 0 13 0;
#X connect 15 1 3 0;
#X connect 15 2 7 0;
#X connect 16 0 15 0;
#X restore 187 306 pd send_osc;
#X obj 164 38 tgl 15 0 empty empty empty 17 7 0 10 -262144 -1 -1 0
1;
#N canvas 706 180 1081 878 filtre_complexe 0;
#X obj 162 83 inlet;
#X obj 162 110 list trim;
#X text 68 491 cote droit;
#X text 64 445 cote gauche;
#X obj 163 145 route centre gauche droite;
#X msg 163 190 1 \$1;
#X msg 222 190 2 \$1;
#X msg 284 193 3 \$1;
#N canvas 138 41 360 282 interface_tests 0;
#X obj 13 132 outlet;
#X msg 227 19 droite 1;
#X msg 227 41 droite 0;
#X msg 11 19 gauche 1;
#X msg 12 39 gauche 0;
#X msg 120 38 centre 0;
#X msg 120 17 centre 1;
#X obj 12 101 t a;
#X obj 121 101 t a;
#X obj 228 100 t a;
#X connect 1 0 9 0;
#X connect 2 0 9 0;
#X connect 3 0 7 0;
#X connect 4 0 7 0;
#X connect 5 0 8 0;
#X connect 6 0 8 0;
#X connect 7 0 0 0;
#X connect 8 0 0 0;
#X connect 9 0 0 0;
#X restore 244 111 pd interface_tests;
#X obj 510 158 array define -yrange 0 4 accum_\$0 4;
#X obj 164 269 expr 0 \; if ($f2==1 \, accum_\$0[$f1]=accum_\$0[$f1]+1
\, accum_\$0[$f1]= accum_\$0[$f1]-1), f 100;
#X obj 164 316 expr 0 \; if(sum("accum_\$0") == 0 \, state_\$0[0]=1
\, state_\$0[0]=0), f 100;
#X obj 164 437 expr 0 \; if(accum_\$0[2]!=0 && accum_\$0[2]>accum_\$0[3]
\, state_\$0[2]=1 \, state_\$0[2]=0) \;, f 100;
#X obj 164 480 expr 0 \; if(accum_\$0[3]!=0 && accum_\$0[3]>accum_\$0[2]
\, state_\$0[3]=1 \, state_\$0[3]=0) \;, f 100;
#X obj 164 547 array min state_\$0;
#X obj 165 577 sel -1;
#X obj 164 520 t b;
#X obj 165 602 t b b;
#X obj 163 661 array max state_\$0;
#X obj 203 632 t b;
#X obj 163 692 sel 1;
#X obj 163 723 i;
#X text 44 578 recalibrer si -1;
#X text 54 667 sortir si =1;
#X obj 163 757 outlet;
#X obj 164 398 expr 0 \; if(accum_\$0[1]!=0 && accum_\$0[1]> accum_\$0[2]+accum_\$0[3]
\, state_\$0[1]=0 \, state_\$0[1]) \;, f 100;
#X obj 509 190 array define -yrange 0 1 state_\$0 4;
#X obj 164 358 expr 0 \; if( accum_\$0[2]==accum_\$0[3] && sum("accum_\$0")!=0
\, state_\$0[1]=1 \, state_\$0[1]=0) \;, f 100;
#X obj 438 138 inlet;
#X obj 438 162 outlet;
#X obj 235 601 print UNDERFLOW :: need_calib;
#X text 785 157 donnees entrantes;
#X text 783 191 donnees sortantes;
#X text 209 23 Sort des evements non redondant;
#X text -8 6 In gauche centre droite 0/1;
#X text -9 22 Out up down left right;
#X text 209 7 Sprend des mots et des etats en entree;
#X text 47 279 data -> accum;
#X text 45 322 cnd jump (up);
#X text 31 366 cnd milieu (down);
#X text 22 407 si direction;
#X msg 510 130 const 0;
#X obj 526 82 r reset_\$0;
#X connect 0 0 1 0;
#X connect 1 0 4 0;
#X connect 4 0 5 0;
#X connect 4 1 6 0;
#X connect 4 2 7 0;
#X connect 4 3 29 0;
#X connect 5 0 10 0;
#X connect 6 0 10 0;
#X connect 7 0 10 0;
#X connect 8 0 4 0;
#X connect 10 0 11 0;
#X connect 11 0 27 0;
#X connect 12 0 13 0;
#X connect 13 0 16 0;
#X connect 14 0 15 0;
#X connect 15 0 17 0;
#X connect 15 1 19 0;
#X connect 16 0 14 0;
#X connect 17 0 30 0;
#X connect 17 1 19 0;
#X connect 18 0 20 0;
#X connect 18 1 21 1;
#X connect 19 0 18 0;
#X connect 20 0 21 0;
#X connect 21 0 24 0;
#X connect 25 0 12 0;
#X connect 27 0 25 0;
#X connect 28 0 29 0;
#X connect 41 0 9 0;
#X connect 42 0 41 0;
#X restore 65 182 pd filtre_complexe;
#N canvas 0 23 450 300 filtre_on 0;
#X obj 65 17 inlet;
#X obj 105 107 outlet;
#X obj 65 46 expr if($f2==1 \, $f1 \, -1);
#X obj 65 75 sel -1;
#X text 143 23 list de deux chiffres entre;
#X text 162 106 un chiffre sort quand on;
#X connect 0 0 2 0;
#X connect 2 0 3 0;
#X connect 3 1 1 0;
#X restore 119 157 pd filtre_on;
#X msg 163 60 Button 9 \$1;
#N canvas 819 564 450 300 map_mapping 0;
#X obj 192 16 inlet;
#X obj 48 94 text search mapping_\$0 0;
#X obj 51 163 text get mapping_\$0 1 1;
#X obj 192 62 list split 1;
#X obj 171 209 list append;
#X obj 172 244 outlet;
#X obj 48 120 sel -1;
#X obj 7 174 bng 15 250 50 0 empty empty empty 17 7 0 10 -262144 -1
-1;
#X obj 305 155 list;
#X obj 193 38 t a a, f 20;
#X obj 308 185 outlet;
#X connect 0 0 9 0;
#X connect 1 0 6 0;
#X connect 2 0 4 0;
#X connect 3 0 1 0;
#X connect 3 1 4 1;
#X connect 4 0 5 0;
#X connect 6 0 7 0;
#X connect 6 0 8 0;
#X connect 6 1 2 0;
#X connect 8 0 10 0;
#X connect 9 0 3 0;
#X connect 9 1 8 1;
#X restore 65 134 pd map_mapping;
#N canvas 802 462 450 300 map_outputs 0;
#X obj 181 33 inlet;
#X obj 182 63 list split 1;
#X obj 148 164 list append;
#X obj 149 199 outlet;
#X obj 41 94 text search outputs_\$0 0;
#X obj 41 128 text get outputs_\$0 1 1;
#X connect 0 0 1 0;
#X connect 1 0 4 0;
#X connect 1 1 2 1;
#X connect 2 0 3 0;
#X connect 4 0 5 0;
#X connect 5 0 2 0;
#X restore 188 249 pd map_outputs;
#N canvas 683 145 808 379 send_dmx 0;
#X obj 72 110 inlet;
#X obj 129 614 netsend -b -u;
#X msg 281 260 0;
#X msg 292 391 disconnect \, connect \$1 \$2;
#X obj 146 107 loadbang;
#X obj 92 512 oscformat;
#X obj 129 550 list prepend send;
#X obj 129 575 list trim;
#X msg 118 200 1;
#X obj 143 131 t b b b;
#X obj 127 109 bng 15 250 50 0 empty empty empty 17 7 0 10 -262144
-1 -1;
#X msg 284 111 read -c dmx_out.txt;
#X msg 299 132 write -c dmx_out.txt;
#X obj 284 156 text define dmx_out_\$0;
#X obj 281 288 text get dmx_out_\$0;
#X obj 118 226 text get dmx_out_\$0;
#X msg 92 46 up;
#X msg 129 47 down;
#X msg 175 46 left;
#X msg 212 46 right;
#X obj 93 -4 hradio 15 1 0 4 empty empty empty 0 -8 0 10 -262144 -1
-1 1;
#X obj 93 16 sel 0 1 2 3;
#X obj 40 96 t a;
#X obj 63 27 bng 15 250 50 0 empty empty empty 17 7 0 10 -262144 -1
-1;
#X msg 93 486 set \$1;
#X symbolatom 106 334 10 0 0 0 - - -;
#X msg 106 358 set \$1;
#X obj 53 388 makefilename;
#X obj 50 202 symbol;
#X obj 106 309 makefilename %s/%%s;
#X obj 47 436 t b a;
#X msg 45 481 1;
#X connect 0 0 28 0;
#X connect 2 0 14 0;
#X connect 3 0 1 0;
#X connect 4 0 9 0;
#X connect 5 0 6 0;
#X connect 6 0 7 0;
#X connect 7 0 1 0;
#X connect 8 0 15 0;
#X connect 9 0 8 0;
#X connect 9 1 2 0;
#X connect 9 2 11 0;
#X connect 10 0 9 0;
#X connect 11 0 13 0;
#X connect 12 0 13 0;
#X connect 14 0 3 0;
#X connect 15 0 29 0;
#X connect 16 0 22 0;
#X connect 17 0 22 0;
#X connect 18 0 22 0;
#X connect 19 0 22 0;
#X connect 20 0 21 0;
#X connect 20 0 23 0;
#X connect 21 0 16 0;
#X connect 21 1 17 0;
#X connect 21 2 18 0;
#X connect 21 3 19 0;
#X connect 22 0 28 0;
#X connect 24 0 5 0;
#X connect 25 0 26 0;
#X connect 26 0 27 0;
#X connect 27 0 30 0;
#X connect 28 0 27 0;
#X connect 29 0 25 0;
#X connect 30 0 31 0;
#X connect 30 1 24 0;
#X connect 31 0 5 0;
#X restore 178 329 pd send_dmx;
#X obj 77 18 s reset_\$0;
#X obj 21 -11 t b b b;
#X obj 22 -36 bng 15 250 50 0 empty empty empty 17 7 0 10 -262144 -1
-1;
#X text 51 -40 reset;
#X obj 21 18 del 500;
#X connect 1 0 0 0;
#X connect 2 0 43 0;
#X connect 2 0 33 0;
#X connect 3 0 4 0;
#X connect 3 1 5 0;
#X connect 3 2 6 0;
#X connect 3 3 7 0;
#X connect 3 4 8 0;
#X connect 3 5 9 0;
#X connect 3 6 10 0;
#X connect 3 7 11 0;
#X connect 3 8 12 0;
#X connect 3 9 13 0;
#X connect 24 0 14 0;
#X connect 24 1 15 0;
#X connect 24 2 25 0;
#X connect 25 0 16 0;
#X connect 25 1 17 0;
#X connect 25 2 18 0;
#X connect 25 3 26 0;
#X connect 26 0 19 0;
#X connect 26 1 20 0;
#X connect 26 2 27 0;
#X connect 27 0 21 0;
#X connect 27 1 22 0;
#X connect 27 2 23 0;
#X connect 30 0 2 0;
#X connect 31 0 30 0;
#X connect 32 0 30 0;
#X connect 33 0 3 0;
#X connect 33 1 24 0;
#X connect 39 0 42 0;
#X connect 40 0 44 0;
#X connect 40 1 44 0;
#X connect 41 0 40 1;
#X connect 42 0 2 0;
#X connect 43 0 40 0;
#X connect 43 1 41 0;
#X connect 44 0 36 0;
#X connect 44 0 37 0;
#X connect 44 0 38 0;
#X connect 44 0 45 0;
#X connect 47 0 50 0;
#X connect 47 1 46 0;
#X connect 47 2 1 0;
#X connect 48 0 47 0;
#X connect 50 0 32 0;
