#N canvas 85 680 902 419 12;
#X msg 103 27 listen 0 \, listen 9001;
#X obj 81 73 netreceive -u -b;
#X obj 81 98 oscparse;
#X obj 82 306 route dmx;
#X obj 218 72 array define -yrange 0 1 dmx_\$0 10;
#X obj 87 124 list trim;
#X obj 87 149 list split 2;
#X obj 268 247 expr dmx_\$0[$i1]=$f2;
#X obj 127 178 list split 1;
#X obj 158 247 print;
#X obj 318 162 makefilename %i;
#X msg 313 127 3;
#X floatatom 308 194 5 0 0 0 - - -;
#X connect 0 0 1 0;
#X connect 1 0 2 0;
#X connect 2 0 5 0;
#X connect 5 0 6 0;
#X connect 6 1 8 0;
#X connect 8 0 9 0;
#X connect 10 0 12 0;
#X connect 11 0 10 0;
